<svg xmlns="http://www.w3.org/2000/svg" viewBox="0 0 100 100">
  <defs>
    <linearGradient id="grad1" x1="0%" y1="0%" x2="100%" y2="100%">
      <stop offset="0%" style="stop-color:#667eea;stop-opacity:1" />
      <stop offset="100%" style="stop-color:#764ba2;stop-opacity:1" />
    </linearGradient>
  </defs>
  
  <!-- Magic lamp/genie bottle -->
  <path d="M 50 10 Q 55 15, 55 20 L 55 35 Q 60 40, 60 50 Q 60 65, 50 70 Q 40 65, 40 50 Q 40 40, 45 35 L 45 20 Q 45 15, 50 10 Z" 
        fill="url(#grad1)" stroke="#fff" stroke-width="2"/>
  
  <!-- Sparkle/magic effect -->
  <circle cx="35" cy="25" r="3" fill="#ffd700" opacity="0.8"/>
  <circle cx="65" cy="30" r="2" fill="#ffd700" opacity="0.8"/>
  <circle cx="50" cy="15" r="2.5" fill="#ffd700" opacity="0.8"/>
  
  <!-- DevOps gear symbol -->
  <circle cx="50" cy="50" r="12" fill="none" stroke="#fff" stroke-width="2.5"/>
  <circle cx="50" cy="50" r="6" fill="#fff"/>
  
  <!-- Gear teeth -->
  <path d="M 50 38 L 52 42 L 48 42 Z" fill="#fff"/>
  <path d="M 62 50 L 58 52 L 58 48 Z" fill="#fff"/>
  <path d="M 50 62 L 48 58 L 52 58 Z" fill="#fff"/>
  <path d="M 38 50 L 42 48 L 42 52 Z" fill="#fff"/>
  
  <!-- Genie smoke cloud -->
  <ellipse cx="50" cy="78" rx="35" ry="15" fill="url(#grad1)" opacity="0.3"/>
  <ellipse cx="45" cy="85" rx="30" ry="12" fill="url(#grad1)" opacity="0.2"/>
</svg>
